<mxfile host="65bd71144e" modified="2021-02-17T21:09:58.532Z" agent="5.0 (X11; Linux x86_64) AppleWebKit/537.36 (KHTML, like Gecko) Code/1.53.2 Chrome/87.0.4280.141 Electron/11.2.1 Safari/537.36" etag="hBP9wAGxWJ998jRP94VR" version="14.2.4" type="embed" pages="2">
    <diagram id="eaUMyx7dPOAa2al45QBv" name="HighLevel">
        <mxGraphModel dx="669" dy="383" grid="1" gridSize="10" guides="1" tooltips="1" connect="1" arrows="1" fold="1" page="1" pageScale="1" pageWidth="850" pageHeight="1100" math="0" shadow="0">
            <root>
                <mxCell id="0"/>
                <mxCell id="1" parent="0"/>
                <mxCell id="4" value="" style="rounded=0;orthogonalLoop=1;jettySize=auto;html=1;endArrow=diamondThin;endFill=0;startArrow=none;startFill=0;" parent="1" source="3" target="2" edge="1">
                    <mxGeometry relative="1" as="geometry"/>
                </mxCell>
                <mxCell id="22" value="" style="edgeStyle=none;rounded=0;orthogonalLoop=1;jettySize=auto;html=1;endArrow=classicThin;endFill=1;" parent="1" source="2" target="21" edge="1">
                    <mxGeometry relative="1" as="geometry"/>
                </mxCell>
                <mxCell id="36" style="edgeStyle=orthogonalEdgeStyle;rounded=0;orthogonalLoop=1;jettySize=auto;html=1;exitX=1;exitY=0.5;exitDx=0;exitDy=0;entryX=0;entryY=0.5;entryDx=0;entryDy=0;endArrow=none;endFill=0;startArrow=diamond;startFill=0;" parent="1" source="2" target="35" edge="1">
                    <mxGeometry relative="1" as="geometry"/>
                </mxCell>
                <mxCell id="2" value="TelloTelemetry" style="rounded=1;whiteSpace=wrap;html=1;fillColor=#6a00ff;strokeColor=#3700CC;fontColor=#ffffff;" parent="1" vertex="1">
                    <mxGeometry x="350" y="160" width="120" height="60" as="geometry"/>
                </mxCell>
                <mxCell id="8" value="" style="rounded=0;orthogonalLoop=1;jettySize=auto;html=1;endArrow=diamond;endFill=0;entryX=0.5;entryY=1;entryDx=0;entryDy=0;" parent="1" source="20" target="24" edge="1">
                    <mxGeometry relative="1" as="geometry"/>
                </mxCell>
                <mxCell id="16" value="" style="edgeStyle=none;rounded=0;orthogonalLoop=1;jettySize=auto;html=1;endArrow=diamond;endFill=0;entryX=0.75;entryY=1;entryDx=0;entryDy=0;" parent="1" source="15" target="24" edge="1">
                    <mxGeometry relative="1" as="geometry"/>
                </mxCell>
                <mxCell id="3" value="TelloFlightData" style="whiteSpace=wrap;html=1;rounded=1;fillColor=#60a917;strokeColor=#2D7600;fontColor=#ffffff;" parent="1" vertex="1">
                    <mxGeometry x="245" y="330" width="120" height="60" as="geometry"/>
                </mxCell>
                <mxCell id="5" value="1" style="text;html=1;strokeColor=none;fillColor=none;align=center;verticalAlign=middle;whiteSpace=wrap;rounded=0;" parent="1" vertex="1">
                    <mxGeometry x="310" y="310" width="40" height="20" as="geometry"/>
                </mxCell>
                <mxCell id="6" value="1" style="text;html=1;strokeColor=none;fillColor=none;align=center;verticalAlign=middle;whiteSpace=wrap;rounded=0;" parent="1" vertex="1">
                    <mxGeometry x="365" y="220" width="40" height="20" as="geometry"/>
                </mxCell>
                <mxCell id="7" value="MVO" style="whiteSpace=wrap;html=1;rounded=1;fontColor=#ffffff;strokeColor=#005700;fillColor=#008a00;" parent="1" vertex="1">
                    <mxGeometry x="410" y="480" width="120" height="60" as="geometry"/>
                </mxCell>
                <mxCell id="15" value="IMU_ATTI" style="whiteSpace=wrap;html=1;rounded=1;fontColor=#ffffff;strokeColor=#005700;fillColor=#008a00;" parent="1" vertex="1">
                    <mxGeometry x="580" y="480" width="120" height="60" as="geometry"/>
                </mxCell>
                <mxCell id="17" value="1" style="text;html=1;align=center;verticalAlign=middle;resizable=0;points=[];autosize=1;" parent="1" vertex="1">
                    <mxGeometry x="580" y="390" width="20" height="20" as="geometry"/>
                </mxCell>
                <mxCell id="18" value="1" style="text;html=1;align=center;verticalAlign=middle;resizable=0;points=[];autosize=1;" parent="1" vertex="1">
                    <mxGeometry x="620" y="460" width="20" height="20" as="geometry"/>
                </mxCell>
                <mxCell id="19" value="1" style="text;html=1;align=center;verticalAlign=middle;resizable=0;points=[];autosize=1;" parent="1" vertex="1">
                    <mxGeometry x="510" y="390" width="20" height="20" as="geometry"/>
                </mxCell>
                <mxCell id="21" value="SPDLOGGER" style="whiteSpace=wrap;html=1;rounded=1;fillColor=#d80073;strokeColor=#A50040;fontColor=#ffffff;" parent="1" vertex="1">
                    <mxGeometry x="40" y="160" width="120" height="60" as="geometry"/>
                </mxCell>
                <mxCell id="24" value="TelloLogData" style="whiteSpace=wrap;html=1;rounded=1;fillColor=#0050ef;strokeColor=#001DBC;fontColor=#ffffff;" parent="1" vertex="1">
                    <mxGeometry x="480" y="330" width="120" height="60" as="geometry"/>
                </mxCell>
                <mxCell id="25" value="" style="rounded=0;orthogonalLoop=1;jettySize=auto;html=1;endArrow=diamondThin;endFill=0;startArrow=none;startFill=0;entryX=0.75;entryY=1;entryDx=0;entryDy=0;exitX=0.5;exitY=0;exitDx=0;exitDy=0;" parent="1" source="24" target="2" edge="1">
                    <mxGeometry relative="1" as="geometry">
                        <mxPoint x="315" y="340" as="sourcePoint"/>
                        <mxPoint x="315" y="230" as="targetPoint"/>
                    </mxGeometry>
                </mxCell>
                <mxCell id="26" value="1" style="text;html=1;strokeColor=none;fillColor=none;align=center;verticalAlign=middle;whiteSpace=wrap;rounded=0;" parent="1" vertex="1">
                    <mxGeometry x="530" y="310" width="40" height="20" as="geometry"/>
                </mxCell>
                <mxCell id="27" value="1" style="text;html=1;strokeColor=none;fillColor=none;align=center;verticalAlign=middle;whiteSpace=wrap;rounded=0;" parent="1" vertex="1">
                    <mxGeometry x="420" y="220" width="40" height="20" as="geometry"/>
                </mxCell>
                <mxCell id="20" value="1" style="text;html=1;align=center;verticalAlign=middle;resizable=0;points=[];autosize=1;" parent="1" vertex="1">
                    <mxGeometry x="470" y="460" width="20" height="20" as="geometry"/>
                </mxCell>
                <mxCell id="29" value="" style="rounded=0;orthogonalLoop=1;jettySize=auto;html=1;endArrow=diamond;endFill=0;entryX=0.5;entryY=1;entryDx=0;entryDy=0;" parent="1" source="7" target="20" edge="1">
                    <mxGeometry relative="1" as="geometry">
                        <mxPoint x="487.5" y="480" as="sourcePoint"/>
                        <mxPoint x="540" y="390" as="targetPoint"/>
                    </mxGeometry>
                </mxCell>
                <mxCell id="34" style="edgeStyle=orthogonalEdgeStyle;rounded=0;orthogonalLoop=1;jettySize=auto;html=1;" parent="1" source="33" target="2" edge="1">
                    <mxGeometry relative="1" as="geometry"/>
                </mxCell>
                <mxCell id="33" value="TelloDriver" style="rounded=1;whiteSpace=wrap;html=1;fillColor=#a20025;strokeColor=#6F0000;fontColor=#ffffff;" parent="1" vertex="1">
                    <mxGeometry x="350" y="20" width="120" height="60" as="geometry"/>
                </mxCell>
                <mxCell id="39" style="edgeStyle=orthogonalEdgeStyle;rounded=0;orthogonalLoop=1;jettySize=auto;html=1;exitX=1;exitY=0.5;exitDx=0;exitDy=0;endArrow=block;endFill=1;entryX=1;entryY=0.5;entryDx=0;entryDy=0;fillColor=#a20025;strokeColor=#6F0000;" parent="1" target="35" edge="1">
                    <mxGeometry relative="1" as="geometry">
                        <mxPoint x="820" y="190.41176470588232" as="sourcePoint"/>
                    </mxGeometry>
                </mxCell>
                <mxCell id="35" value="TelloSocket" style="rounded=1;whiteSpace=wrap;html=1;fillColor=#1ba1e2;strokeColor=#006EAF;fontColor=#ffffff;" parent="1" vertex="1">
                    <mxGeometry x="600" y="160" width="120" height="60" as="geometry"/>
                </mxCell>
                <mxCell id="38" style="edgeStyle=orthogonalEdgeStyle;rounded=0;orthogonalLoop=1;jettySize=auto;html=1;exitX=0.5;exitY=1;exitDx=0;exitDy=0;entryX=0.5;entryY=0;entryDx=0;entryDy=0;endArrow=block;endFill=1;" parent="1" source="37" target="35" edge="1">
                    <mxGeometry relative="1" as="geometry"/>
                </mxCell>
                <mxCell id="37" value="&amp;lt;&amp;lt;IReceiver&amp;gt;&amp;gt;" style="rounded=1;whiteSpace=wrap;html=1;fillColor=#1ba1e2;strokeColor=#006EAF;fontColor=#ffffff;" parent="1" vertex="1">
                    <mxGeometry x="600" y="30" width="120" height="60" as="geometry"/>
                </mxCell>
                <mxCell id="40" value="Raw bytes from socket" style="text;html=1;align=center;verticalAlign=middle;resizable=0;points=[];autosize=1;" parent="1" vertex="1">
                    <mxGeometry x="710" y="160" width="140" height="20" as="geometry"/>
                </mxCell>
                <mxCell id="rrPVT6aOfjb0WAxfOEWa-40" value="1" style="text;html=1;strokeColor=none;fillColor=none;align=center;verticalAlign=middle;whiteSpace=wrap;rounded=0;" parent="1" vertex="1">
                    <mxGeometry x="560" y="170" width="40" height="20" as="geometry"/>
                </mxCell>
                <mxCell id="rrPVT6aOfjb0WAxfOEWa-41" value="1" style="text;html=1;strokeColor=none;fillColor=none;align=center;verticalAlign=middle;whiteSpace=wrap;rounded=0;" parent="1" vertex="1">
                    <mxGeometry x="470" y="170" width="40" height="20" as="geometry"/>
                </mxCell>
                <mxCell id="q-fhJ3i-SILO3obJtbE1-41" value="IObserver" style="whiteSpace=wrap;html=1;rounded=1;fillColor=#f0a30a;strokeColor=#BD7000;fontColor=#ffffff;" parent="1" vertex="1">
                    <mxGeometry x="50" y="330" width="120" height="60" as="geometry"/>
                </mxCell>
                <mxCell id="q-fhJ3i-SILO3obJtbE1-43" value="" style="rounded=0;orthogonalLoop=1;jettySize=auto;html=1;endArrow=diamondThin;endFill=0;startArrow=none;startFill=0;entryX=0;entryY=1;entryDx=0;entryDy=0;exitX=0.5;exitY=0;exitDx=0;exitDy=0;" parent="1" source="q-fhJ3i-SILO3obJtbE1-41" target="2" edge="1">
                    <mxGeometry relative="1" as="geometry">
                        <mxPoint x="333.52941176470586" y="340" as="sourcePoint"/>
                        <mxPoint x="401.47058823529403" y="230" as="targetPoint"/>
                    </mxGeometry>
                </mxCell>
                <mxCell id="q-fhJ3i-SILO3obJtbE1-44" value="1" style="text;html=1;strokeColor=none;fillColor=none;align=center;verticalAlign=middle;whiteSpace=wrap;rounded=0;" parent="1" vertex="1">
                    <mxGeometry x="100" y="300" width="40" height="20" as="geometry"/>
                </mxCell>
                <mxCell id="q-fhJ3i-SILO3obJtbE1-45" value="*" style="text;html=1;strokeColor=none;fillColor=none;align=center;verticalAlign=middle;whiteSpace=wrap;rounded=0;" parent="1" vertex="1">
                    <mxGeometry x="310" y="200" width="40" height="20" as="geometry"/>
                </mxCell>
            </root>
        </mxGraphModel>
    </diagram>
    <diagram name="TelloTellemtry_activity" id="zbyUBFQcWisYmHRegUyE">
        <mxGraphModel dx="823" dy="958" grid="1" gridSize="10" guides="1" tooltips="1" connect="1" arrows="1" fold="1" page="1" pageScale="1" pageWidth="850" pageHeight="1100" math="0" shadow="0">
            <root>
                <mxCell id="Pe_IsEzirjQJwdmx9Nyf-0"/>
                <mxCell id="Pe_IsEzirjQJwdmx9Nyf-1" parent="Pe_IsEzirjQJwdmx9Nyf-0"/>
                <mxCell id="Pe_IsEzirjQJwdmx9Nyf-36" value="" style="edgeStyle=orthogonalEdgeStyle;rounded=0;orthogonalLoop=1;jettySize=auto;html=1;startArrow=none;startFill=0;endArrow=none;endFill=0;dashed=1;" parent="Pe_IsEzirjQJwdmx9Nyf-1" source="Pe_IsEzirjQJwdmx9Nyf-32" target="Pe_IsEzirjQJwdmx9Nyf-35" edge="1">
                    <mxGeometry relative="1" as="geometry"/>
                </mxCell>
                <mxCell id="Pe_IsEzirjQJwdmx9Nyf-32" value="TelloTelemetry::&lt;span style=&quot;color: rgb(240 , 240 , 240)&quot;&gt;StartListening&lt;/span&gt;" style="rounded=1;whiteSpace=wrap;html=1;fillColor=#6a00ff;strokeColor=#3700CC;fontColor=#ffffff;" parent="Pe_IsEzirjQJwdmx9Nyf-1" vertex="1">
                    <mxGeometry x="1200" y="102.5" width="190" height="50" as="geometry"/>
                </mxCell>
                <mxCell id="Pe_IsEzirjQJwdmx9Nyf-35" value="" style="whiteSpace=wrap;html=1;rounded=0;fontColor=#ffffff;strokeColor=#3700CC;fillColor=#6a00ff;" parent="Pe_IsEzirjQJwdmx9Nyf-1" vertex="1">
                    <mxGeometry x="1285" y="237.5" width="20" height="120" as="geometry"/>
                </mxCell>
                <mxCell id="Pe_IsEzirjQJwdmx9Nyf-39" value="" style="edgeStyle=orthogonalEdgeStyle;rounded=0;orthogonalLoop=1;jettySize=auto;html=1;dashed=1;startArrow=none;startFill=0;endArrow=none;endFill=0;" parent="Pe_IsEzirjQJwdmx9Nyf-1" target="Pe_IsEzirjQJwdmx9Nyf-38" edge="1">
                    <mxGeometry relative="1" as="geometry">
                        <mxPoint x="1020" y="120" as="sourcePoint"/>
                    </mxGeometry>
                </mxCell>
                <mxCell id="Pe_IsEzirjQJwdmx9Nyf-41" value="" style="edgeStyle=orthogonalEdgeStyle;rounded=0;orthogonalLoop=1;jettySize=auto;html=1;dashed=1;startArrow=none;startFill=0;endArrow=none;endFill=0;" parent="Pe_IsEzirjQJwdmx9Nyf-1" source="Pe_IsEzirjQJwdmx9Nyf-38" target="Pe_IsEzirjQJwdmx9Nyf-40" edge="1">
                    <mxGeometry relative="1" as="geometry"/>
                </mxCell>
                <mxCell id="Pe_IsEzirjQJwdmx9Nyf-38" value="TelloDriver::Connect()" style="rounded=1;whiteSpace=wrap;html=1;fillColor=#a20025;strokeColor=#6F0000;fontColor=#ffffff;" parent="Pe_IsEzirjQJwdmx9Nyf-1" vertex="1">
                    <mxGeometry x="950" y="100" width="120" height="60" as="geometry"/>
                </mxCell>
                <mxCell id="Pe_IsEzirjQJwdmx9Nyf-42" style="edgeStyle=orthogonalEdgeStyle;rounded=0;orthogonalLoop=1;jettySize=auto;html=1;exitX=1;exitY=0.25;exitDx=0;exitDy=0;entryX=0;entryY=0.25;entryDx=0;entryDy=0;startArrow=none;startFill=0;endArrow=classic;endFill=1;" parent="Pe_IsEzirjQJwdmx9Nyf-1" source="Pe_IsEzirjQJwdmx9Nyf-40" target="Pe_IsEzirjQJwdmx9Nyf-35" edge="1">
                    <mxGeometry relative="1" as="geometry"/>
                </mxCell>
                <mxCell id="Pe_IsEzirjQJwdmx9Nyf-44" style="edgeStyle=orthogonalEdgeStyle;rounded=0;orthogonalLoop=1;jettySize=auto;html=1;exitX=1;exitY=0.5;exitDx=0;exitDy=0;startArrow=none;startFill=0;endArrow=classic;endFill=1;" parent="Pe_IsEzirjQJwdmx9Nyf-1" source="Pe_IsEzirjQJwdmx9Nyf-40" edge="1">
                    <mxGeometry relative="1" as="geometry">
                        <mxPoint x="1190" y="289.8571428571429" as="targetPoint"/>
                    </mxGeometry>
                </mxCell>
                <mxCell id="Pe_IsEzirjQJwdmx9Nyf-40" value="" style="whiteSpace=wrap;html=1;rounded=0;fontColor=#ffffff;strokeColor=#6F0000;fillColor=#a20025;" parent="Pe_IsEzirjQJwdmx9Nyf-1" vertex="1">
                    <mxGeometry x="1000" y="240" width="20" height="100" as="geometry"/>
                </mxCell>
                <mxCell id="Pe_IsEzirjQJwdmx9Nyf-43" value="&lt;div style=&quot;line-height: 19px&quot;&gt;m_TelloTelemetry.StartListening();&lt;/div&gt;" style="text;html=1;align=center;verticalAlign=middle;resizable=0;points=[];autosize=1;" parent="Pe_IsEzirjQJwdmx9Nyf-1" vertex="1">
                    <mxGeometry x="1010" y="240" width="200" height="20" as="geometry"/>
                </mxCell>
                <mxCell id="Pe_IsEzirjQJwdmx9Nyf-45" value="&lt;div style=&quot;line-height: 19px&quot;&gt;m_TelloCommander.SendConnReq();&lt;/div&gt;" style="text;html=1;align=center;verticalAlign=middle;resizable=0;points=[];autosize=1;" parent="Pe_IsEzirjQJwdmx9Nyf-1" vertex="1">
                    <mxGeometry x="1020" y="300" width="220" height="20" as="geometry"/>
                </mxCell>
                <mxCell id="Pe_IsEzirjQJwdmx9Nyf-46" style="edgeStyle=orthogonalEdgeStyle;rounded=0;orthogonalLoop=1;jettySize=auto;html=1;exitX=1;exitY=0.25;exitDx=0;exitDy=0;entryX=1;entryY=0.75;entryDx=0;entryDy=0;startArrow=none;startFill=0;endArrow=classic;endFill=1;" parent="Pe_IsEzirjQJwdmx9Nyf-1" source="Pe_IsEzirjQJwdmx9Nyf-35" target="Pe_IsEzirjQJwdmx9Nyf-35" edge="1">
                    <mxGeometry relative="1" as="geometry">
                        <Array as="points">
                            <mxPoint x="1390" y="267"/>
                            <mxPoint x="1390" y="327"/>
                        </Array>
                    </mxGeometry>
                </mxCell>
                <mxCell id="Pe_IsEzirjQJwdmx9Nyf-47" value="Start Listener thread." style="text;html=1;align=center;verticalAlign=middle;resizable=0;points=[];autosize=1;" parent="Pe_IsEzirjQJwdmx9Nyf-1" vertex="1">
                    <mxGeometry x="1275" y="240" width="130" height="20" as="geometry"/>
                </mxCell>
                <mxCell id="Pe_IsEzirjQJwdmx9Nyf-51" style="edgeStyle=orthogonalEdgeStyle;rounded=0;orthogonalLoop=1;jettySize=auto;html=1;exitX=0.5;exitY=1;exitDx=0;exitDy=0;entryX=0.5;entryY=0;entryDx=0;entryDy=0;startArrow=none;startFill=0;endArrow=none;endFill=0;dashed=1;" parent="Pe_IsEzirjQJwdmx9Nyf-1" source="Pe_IsEzirjQJwdmx9Nyf-49" target="Pe_IsEzirjQJwdmx9Nyf-50" edge="1">
                    <mxGeometry relative="1" as="geometry"/>
                </mxCell>
                <mxCell id="Pe_IsEzirjQJwdmx9Nyf-49" value="TelloTelemetry::Listener()" style="rounded=1;whiteSpace=wrap;html=1;fillColor=#6a00ff;strokeColor=#3700CC;fontColor=#ffffff;" parent="Pe_IsEzirjQJwdmx9Nyf-1" vertex="1">
                    <mxGeometry x="870" y="410" width="190" height="50" as="geometry"/>
                </mxCell>
                <mxCell id="Pe_IsEzirjQJwdmx9Nyf-52" style="edgeStyle=orthogonalEdgeStyle;rounded=0;orthogonalLoop=1;jettySize=auto;html=1;exitX=1.065;exitY=0.166;exitDx=0;exitDy=0;startArrow=none;startFill=0;endArrow=classic;endFill=1;entryX=0;entryY=0;entryDx=0;entryDy=0;exitPerimeter=0;" parent="Pe_IsEzirjQJwdmx9Nyf-1" source="Pe_IsEzirjQJwdmx9Nyf-50" target="Pe_IsEzirjQJwdmx9Nyf-56" edge="1">
                    <mxGeometry relative="1" as="geometry">
                        <mxPoint x="1050" y="573.3333333333334" as="targetPoint"/>
                        <Array as="points">
                            <mxPoint x="976" y="604"/>
                            <mxPoint x="1100" y="604"/>
                            <mxPoint x="1100" y="613"/>
                            <mxPoint x="1225" y="613"/>
                        </Array>
                    </mxGeometry>
                </mxCell>
                <mxCell id="Pe_IsEzirjQJwdmx9Nyf-66" style="edgeStyle=orthogonalEdgeStyle;rounded=0;orthogonalLoop=1;jettySize=auto;html=1;exitX=1.094;exitY=0.43;exitDx=0;exitDy=0;entryX=0;entryY=0.25;entryDx=0;entryDy=0;startArrow=none;startFill=0;endArrow=classic;endFill=1;exitPerimeter=0;" parent="Pe_IsEzirjQJwdmx9Nyf-1" source="Pe_IsEzirjQJwdmx9Nyf-50" target="Pe_IsEzirjQJwdmx9Nyf-65" edge="1">
                    <mxGeometry relative="1" as="geometry"/>
                </mxCell>
                <mxCell id="Pe_IsEzirjQJwdmx9Nyf-50" value="" style="whiteSpace=wrap;html=1;rounded=0;fontColor=#ffffff;strokeColor=#3700CC;fillColor=#6a00ff;" parent="Pe_IsEzirjQJwdmx9Nyf-1" vertex="1">
                    <mxGeometry x="955" y="542.5" width="20" height="392.5" as="geometry"/>
                </mxCell>
                <mxCell id="Pe_IsEzirjQJwdmx9Nyf-53" value="IReceive-&amp;gt;Recieive()" style="text;html=1;align=center;verticalAlign=middle;resizable=0;points=[];autosize=1;" parent="Pe_IsEzirjQJwdmx9Nyf-1" vertex="1">
                    <mxGeometry x="1095" y="592.5" width="130" height="20" as="geometry"/>
                </mxCell>
                <mxCell id="Pe_IsEzirjQJwdmx9Nyf-57" style="edgeStyle=orthogonalEdgeStyle;rounded=0;orthogonalLoop=1;jettySize=auto;html=1;exitX=0.5;exitY=1;exitDx=0;exitDy=0;entryX=0.5;entryY=0;entryDx=0;entryDy=0;startArrow=none;startFill=0;endArrow=none;endFill=0;dashed=1;" parent="Pe_IsEzirjQJwdmx9Nyf-1" source="Pe_IsEzirjQJwdmx9Nyf-55" target="Pe_IsEzirjQJwdmx9Nyf-56" edge="1">
                    <mxGeometry relative="1" as="geometry"/>
                </mxCell>
                <mxCell id="Pe_IsEzirjQJwdmx9Nyf-55" value="&amp;lt;&amp;lt;IReceiver&amp;gt;&amp;gt;::Receive" style="rounded=1;whiteSpace=wrap;html=1;fillColor=#1ba1e2;strokeColor=#006EAF;fontColor=#ffffff;" parent="Pe_IsEzirjQJwdmx9Nyf-1" vertex="1">
                    <mxGeometry x="1160" y="415" width="120" height="40" as="geometry"/>
                </mxCell>
                <mxCell id="Pe_IsEzirjQJwdmx9Nyf-60" style="edgeStyle=orthogonalEdgeStyle;rounded=0;orthogonalLoop=1;jettySize=auto;html=1;exitX=0;exitY=0.75;exitDx=0;exitDy=0;startArrow=none;startFill=0;endArrow=classic;endFill=1;entryX=1.008;entryY=0.338;entryDx=0;entryDy=0;entryPerimeter=0;" parent="Pe_IsEzirjQJwdmx9Nyf-1" source="Pe_IsEzirjQJwdmx9Nyf-56" target="Pe_IsEzirjQJwdmx9Nyf-50" edge="1">
                    <mxGeometry relative="1" as="geometry"/>
                </mxCell>
                <mxCell id="Pe_IsEzirjQJwdmx9Nyf-56" value="" style="whiteSpace=wrap;html=1;rounded=0;fontColor=#ffffff;strokeColor=#006EAF;fillColor=#1ba1e2;" parent="Pe_IsEzirjQJwdmx9Nyf-1" vertex="1">
                    <mxGeometry x="1225" y="612.5" width="20" height="50" as="geometry"/>
                </mxCell>
                <mxCell id="Pe_IsEzirjQJwdmx9Nyf-58" style="edgeStyle=orthogonalEdgeStyle;rounded=0;orthogonalLoop=1;jettySize=auto;html=1;exitX=1;exitY=0.25;exitDx=0;exitDy=0;entryX=1;entryY=0.75;entryDx=0;entryDy=0;startArrow=none;startFill=0;endArrow=classic;endFill=1;" parent="Pe_IsEzirjQJwdmx9Nyf-1" source="Pe_IsEzirjQJwdmx9Nyf-56" target="Pe_IsEzirjQJwdmx9Nyf-56" edge="1">
                    <mxGeometry relative="1" as="geometry">
                        <Array as="points">
                            <mxPoint x="1355" y="625.5"/>
                            <mxPoint x="1355" y="650.5"/>
                        </Array>
                    </mxGeometry>
                </mxCell>
                <mxCell id="Pe_IsEzirjQJwdmx9Nyf-59" value="async_receive_from_socket()" style="text;html=1;align=center;verticalAlign=middle;resizable=0;points=[];autosize=1;" parent="Pe_IsEzirjQJwdmx9Nyf-1" vertex="1">
                    <mxGeometry x="1240" y="600" width="170" height="20" as="geometry"/>
                </mxCell>
                <mxCell id="Pe_IsEzirjQJwdmx9Nyf-61" value="RawDataBuffer" style="text;html=1;align=center;verticalAlign=middle;resizable=0;points=[];autosize=1;" parent="Pe_IsEzirjQJwdmx9Nyf-1" vertex="1">
                    <mxGeometry x="1105" y="632.5" width="100" height="20" as="geometry"/>
                </mxCell>
                <mxCell id="Pe_IsEzirjQJwdmx9Nyf-63" style="edgeStyle=orthogonalEdgeStyle;rounded=0;orthogonalLoop=1;jettySize=auto;html=1;exitX=0.5;exitY=1;exitDx=0;exitDy=0;entryX=0.5;entryY=0;entryDx=0;entryDy=0;startArrow=none;startFill=0;endArrow=none;endFill=0;dashed=1;" parent="Pe_IsEzirjQJwdmx9Nyf-1" source="Pe_IsEzirjQJwdmx9Nyf-64" target="Pe_IsEzirjQJwdmx9Nyf-65" edge="1">
                    <mxGeometry relative="1" as="geometry"/>
                </mxCell>
                <mxCell id="Pe_IsEzirjQJwdmx9Nyf-64" value="TelloTelemetry::Notify()" style="rounded=1;whiteSpace=wrap;html=1;fillColor=#6a00ff;strokeColor=#3700CC;fontColor=#ffffff;" parent="Pe_IsEzirjQJwdmx9Nyf-1" vertex="1">
                    <mxGeometry x="1390" y="415" width="190" height="50" as="geometry"/>
                </mxCell>
                <mxCell id="Pe_IsEzirjQJwdmx9Nyf-72" style="edgeStyle=orthogonalEdgeStyle;rounded=0;orthogonalLoop=1;jettySize=auto;html=1;exitX=0;exitY=0.75;exitDx=0;exitDy=0;entryX=0.996;entryY=0.558;entryDx=0;entryDy=0;entryPerimeter=0;startArrow=none;startFill=0;endArrow=classic;endFill=1;" parent="Pe_IsEzirjQJwdmx9Nyf-1" source="Pe_IsEzirjQJwdmx9Nyf-65" target="Pe_IsEzirjQJwdmx9Nyf-50" edge="1">
                    <mxGeometry relative="1" as="geometry"/>
                </mxCell>
                <mxCell id="Pe_IsEzirjQJwdmx9Nyf-65" value="" style="whiteSpace=wrap;html=1;rounded=0;fontColor=#ffffff;strokeColor=#3700CC;fillColor=#6a00ff;" parent="Pe_IsEzirjQJwdmx9Nyf-1" vertex="1">
                    <mxGeometry x="1475" y="675" width="20" height="115" as="geometry"/>
                </mxCell>
                <mxCell id="Pe_IsEzirjQJwdmx9Nyf-67" value="Notify()" style="text;html=1;align=center;verticalAlign=middle;resizable=0;points=[];autosize=1;" parent="Pe_IsEzirjQJwdmx9Nyf-1" vertex="1">
                    <mxGeometry x="1105" y="685" width="50" height="20" as="geometry"/>
                </mxCell>
                <mxCell id="Pe_IsEzirjQJwdmx9Nyf-69" style="edgeStyle=orthogonalEdgeStyle;rounded=0;orthogonalLoop=1;jettySize=auto;html=1;exitX=1;exitY=0;exitDx=0;exitDy=0;startArrow=none;startFill=0;endArrow=classic;endFill=1;" parent="Pe_IsEzirjQJwdmx9Nyf-1" source="Pe_IsEzirjQJwdmx9Nyf-50" target="Pe_IsEzirjQJwdmx9Nyf-50" edge="1">
                    <mxGeometry relative="1" as="geometry">
                        <Array as="points">
                            <mxPoint x="1040" y="542"/>
                            <mxPoint x="1040" y="574"/>
                        </Array>
                    </mxGeometry>
                </mxCell>
                <mxCell id="Pe_IsEzirjQJwdmx9Nyf-70" value="now = TimeStamp()" style="text;html=1;align=center;verticalAlign=middle;resizable=0;points=[];autosize=1;" parent="Pe_IsEzirjQJwdmx9Nyf-1" vertex="1">
                    <mxGeometry x="975" y="522.5" width="120" height="20" as="geometry"/>
                </mxCell>
                <mxCell id="Pe_IsEzirjQJwdmx9Nyf-73" style="edgeStyle=orthogonalEdgeStyle;rounded=0;orthogonalLoop=1;jettySize=auto;html=1;exitX=1;exitY=0.75;exitDx=0;exitDy=0;entryX=0.996;entryY=0.908;entryDx=0;entryDy=0;entryPerimeter=0;startArrow=none;startFill=0;endArrow=classic;endFill=1;" parent="Pe_IsEzirjQJwdmx9Nyf-1" source="Pe_IsEzirjQJwdmx9Nyf-50" target="Pe_IsEzirjQJwdmx9Nyf-50" edge="1">
                    <mxGeometry relative="1" as="geometry">
                        <Array as="points">
                            <mxPoint x="1170" y="837"/>
                            <mxPoint x="1170" y="899"/>
                        </Array>
                    </mxGeometry>
                </mxCell>
                <mxCell id="Pe_IsEzirjQJwdmx9Nyf-74" value="&lt;div style=&quot;text-align: left&quot;&gt;&lt;span&gt;if (RawDataBuffer.size() == 0 AND (now - old_stamp ) &amp;gt; DISCONNECT_TIMEOUT&lt;/span&gt;&lt;/div&gt;&lt;div style=&quot;text-align: left&quot;&gt;&lt;span&gt;Set:&lt;/span&gt;&lt;/div&gt;&lt;div style=&quot;text-align: left&quot;&gt;&lt;span&gt;&lt;font color=&quot;#cc0000&quot;&gt;is_connected_flag = false&lt;/font&gt;&lt;/span&gt;&lt;/div&gt;" style="text;html=1;align=center;verticalAlign=middle;resizable=0;points=[];autosize=1;" parent="Pe_IsEzirjQJwdmx9Nyf-1" vertex="1">
                    <mxGeometry x="990" y="790" width="450" height="50" as="geometry"/>
                </mxCell>
                <mxCell id="Pe_IsEzirjQJwdmx9Nyf-75" value="" style="endArrow=none;html=1;dashed=1;fillColor=#6a00ff;strokeColor=#3700CC;strokeWidth=4;" parent="Pe_IsEzirjQJwdmx9Nyf-1" edge="1">
                    <mxGeometry width="50" height="50" relative="1" as="geometry">
                        <mxPoint x="860" y="400" as="sourcePoint"/>
                        <mxPoint x="1680" y="400" as="targetPoint"/>
                    </mxGeometry>
                </mxCell>
                <mxCell id="Pe_IsEzirjQJwdmx9Nyf-76" style="edgeStyle=orthogonalEdgeStyle;rounded=0;orthogonalLoop=1;jettySize=auto;html=1;exitX=1;exitY=0.25;exitDx=0;exitDy=0;entryX=1;entryY=0.75;entryDx=0;entryDy=0;startArrow=none;startFill=0;endArrow=classic;endFill=1;strokeWidth=1;" parent="Pe_IsEzirjQJwdmx9Nyf-1" source="Pe_IsEzirjQJwdmx9Nyf-65" target="Pe_IsEzirjQJwdmx9Nyf-65" edge="1">
                    <mxGeometry relative="1" as="geometry">
                        <Array as="points">
                            <mxPoint x="1610" y="704"/>
                            <mxPoint x="1610" y="761"/>
                        </Array>
                    </mxGeometry>
                </mxCell>
                <mxCell id="Pe_IsEzirjQJwdmx9Nyf-77" value="Itterate through all Attached observers, &lt;br&gt;and update them with new raw data.&lt;br&gt;&lt;br&gt;For (observer in List&amp;lt;IObserver&amp;gt;):&amp;nbsp;&lt;br&gt;Observer-&amp;gt;Update(&lt;span style=&quot;text-align: center&quot;&gt;RawDataBuffer&lt;/span&gt;)" style="text;html=1;align=left;verticalAlign=middle;resizable=0;points=[];autosize=1;" parent="Pe_IsEzirjQJwdmx9Nyf-1" vertex="1">
                    <mxGeometry x="1475" y="600" width="220" height="70" as="geometry"/>
                </mxCell>
            </root>
        </mxGraphModel>
    </diagram>
</mxfile>